<svg xmlns="http://www.w3.org/2000/svg" viewBox="0 0 64 64" shape-rendering="crispEdges">
  <!-- Clawd · happy (todos done · star burst · arms wide) -->
  <!-- Star pixels (yellow accents scattered) -->
  <rect x="6"   y="4"  width="4" height="4" fill="#F5C542"/>
  <rect x="22"  y="2"  width="2" height="2" fill="#F5C542"/>
  <rect x="44"  y="4"  width="2" height="2" fill="#F5C542"/>
  <rect x="56"  y="6"  width="4" height="4" fill="#F5C542"/>
  <rect x="14"  y="10" width="2" height="2" fill="#F5C542"/>
  <!-- Arms thrown wide -->
  <rect x="0"   y="20" width="8" height="4" rx="1" fill="#E87030"/>
  <rect x="0"   y="16" width="4" height="8" rx="1" fill="#E87030"/>
  <rect x="56"  y="20" width="8" height="4" rx="1" fill="#E87030"/>
  <rect x="60"  y="16" width="4" height="8" rx="1" fill="#E87030"/>
  <!-- Body -->
  <rect x="8"   y="14" width="48" height="32" rx="4" fill="#E87030"/>
  <rect x="8"   y="42" width="48" height="4"  fill="#BC5520"/>
  <!-- Smiling pixel-arc eyes (curved with offset rects) -->
  <rect x="16" y="22" width="2"  height="2"  fill="#1a1208"/>
  <rect x="18" y="20" width="6"  height="2"  fill="#1a1208"/>
  <rect x="24" y="22" width="2"  height="2"  fill="#1a1208"/>
  <rect x="38" y="22" width="2"  height="2"  fill="#1a1208"/>
  <rect x="40" y="20" width="6"  height="2"  fill="#1a1208"/>
  <rect x="46" y="22" width="2"  height="2"  fill="#1a1208"/>
  <!-- Cheeks -->
  <rect x="14" y="28" width="6" height="4" rx="1" fill="#F0956A"/>
  <rect x="44" y="28" width="6" height="4" rx="1" fill="#F0956A"/>
  <!-- Legs (asymmetric heights — mid-skip) -->
  <rect x="14" y="46" width="8"  height="10" rx="2" fill="#E87030"/>
  <rect x="28" y="46" width="8"  height="14" rx="2" fill="#E87030"/>
  <rect x="42" y="46" width="8"  height="10" rx="2" fill="#E87030"/>
  <rect x="14" y="54" width="8"  height="2"  fill="#BC5520"/>
  <rect x="28" y="58" width="8"  height="2"  fill="#BC5520"/>
  <rect x="42" y="54" width="8"  height="2"  fill="#BC5520"/>
</svg>
