<svg xmlns="http://www.w3.org/2000/svg" viewBox="0 0 64 64" shape-rendering="crispEdges">
  <!-- Clawd · active (chat open · arms up · ! badge) -->
  <!-- ! badge above head -->
  <rect x="30" y="0"  width="4" height="6" rx="1" fill="#F5C542"/>
  <rect x="30" y="8"  width="4" height="2" rx="1" fill="#F5C542"/>
  <!-- Arms raised -->
  <rect x="2"  y="14" width="6" height="4" rx="1" fill="#E06820"/>
  <rect x="2"  y="14" width="4" height="10" rx="1" fill="#E06820"/>
  <rect x="56" y="14" width="6" height="4" rx="1" fill="#E06820"/>
  <rect x="60" y="14" width="4" height="10" rx="1" fill="#E06820"/>
  <!-- Body -->
  <rect x="8"  y="14" width="48" height="32" rx="4" fill="#E06820"/>
  <!-- Body shadow stripe -->
  <rect x="8"  y="42" width="48" height="4"  fill="#B85218"/>
  <!-- Eyes (wider · with white shine) -->
  <rect x="16" y="20" width="10" height="12" rx="2" fill="#1a1208"/>
  <rect x="38" y="20" width="10" height="12" rx="2" fill="#1a1208"/>
  <rect x="22" y="22" width="2"  height="2"  fill="#ffffff" opacity="0.7"/>
  <rect x="44" y="22" width="2"  height="2"  fill="#ffffff" opacity="0.7"/>
  <!-- Legs -->
  <rect x="14" y="46" width="8"  height="12" rx="2" fill="#E06820"/>
  <rect x="28" y="46" width="8"  height="12" rx="2" fill="#E06820"/>
  <rect x="42" y="46" width="8"  height="12" rx="2" fill="#E06820"/>
  <rect x="14" y="56" width="8"  height="2"  fill="#B85218"/>
  <rect x="28" y="56" width="8"  height="2"  fill="#B85218"/>
  <rect x="42" y="56" width="8"  height="2"  fill="#B85218"/>
</svg>
